# xmcd
#
# Track frame offsets: 
#        150
#        15916
#        31913
#        46771
#        57543
#        64010
#        79110
#        89271
#        97020
#        115843
#        126174
#        137594
#        155082
#        158621
#
# Disc length: 2328 seconds
#
# Revision: 0
# Processed by: cddbd v1.5.2PL0 Copyright (c) Steve Scherf et al.
# Submitted via: ExactAudioCopy v0.99pb3
#
DISCID=ab09160e
DTITLE=White Buffalo, the - Shadows, Greys and Evil Ways [DigiCD]
DYEAR=2013
DGENRE=Alt. Rock
TTITLE0=Shall We Go On
TTITLE1=The Getaway
TTITLE2=When I'm Gone
TTITLE3=Joey White
TTITLE4=30 Days Back
TTITLE5=The Whistler
TTITLE6=Set My Body Free
TTITLE7=Redemption #2
TTITLE8=This Year
TTITLE9=Fire Don't Know
TTITLE10=Joe and Jolene
TTITLE11=Don't You Want It
TTITLE12=#13
TTITLE13=Pray to You Now
EXTD=
EXTT0=
EXTT1=
EXTT2=
EXTT3=
EXTT4=
EXTT5=
EXTT6=
EXTT7=
EXTT8=
EXTT9=
EXTT10=
EXTT11=
EXTT12=
EXTT13=
PLAYORDER=
